<svg width="21" height="22" viewBox="0 0 21 22" fill="none" xmlns="http://www.w3.org/2000/svg">
<g id="Group 3">
<g id="Group 1">
<g id="Vector">
<path fill-rule="evenodd" clip-rule="evenodd" d="M12.1762 12.3266C14.3743 10.2132 14.453 6.72841 12.3519 4.54316C10.2508 2.35791 6.76566 2.29971 4.56752 4.41316C2.36939 6.52661 2.2907 10.0114 4.39177 12.1966C6.49284 14.3819 9.97803 14.4401 12.1762 12.3266ZM14.1565 14.3863C16.3808 12.2477 17.1779 9.1855 16.5206 6.39683C16.1902 4.99518 15.4924 3.66262 14.4237 2.55115C11.229 -0.771624 5.92956 -0.860123 2.58719 2.35348C-0.755172 5.56709 -0.87482 10.8659 2.31995 14.1887C5.51473 17.5114 10.8141 17.5999 14.1565 14.3863Z" fill="#484848" fill-opacity="0.69"/>
<path d="M11.7962 14.3063L14.4992 11.7074L20.4766 17.9243C21.1943 18.6707 21.171 19.8576 20.4246 20.5752C19.6782 21.2929 18.4913 21.2696 17.7736 20.5232L11.7962 14.3063Z" fill="#484848" fill-opacity="0.69"/>
</g>
</g>
</g>
</svg>
