<svg width="26" height="24" viewBox="0 0 26 24" fill="none" xmlns="http://www.w3.org/2000/svg">
<path fill-rule="evenodd" clip-rule="evenodd" d="M0.0732286 9.4382H12.5634C15.1363 9.4382 17.222 7.32539 17.222 4.7191C17.222 2.11281 15.1363 0 12.5634 0H10.8317V2.69663H12.5634C13.6661 2.69663 14.56 3.60212 14.56 4.7191C14.56 5.83608 13.6661 6.74157 12.5634 6.74157H0.0984797L0.0732286 9.4382Z" fill="#484848" fill-opacity="0.91"/>
<path fill-rule="evenodd" clip-rule="evenodd" d="M11.094 21.3034V24H12.4265C14.5368 24 16.3194 22.5785 16.8921 20.6292C17.0176 20.202 17.085 19.7494 17.085 19.2809C17.085 18.8124 17.0176 18.3598 16.8921 17.9326C16.3194 15.9833 14.5368 14.5618 12.4265 14.5618H0.025251L0 17.2584H12.4265C13.0178 17.2584 13.549 17.5188 13.9146 17.9326C14.2308 18.2904 14.423 18.7629 14.423 19.2809C14.423 19.7989 14.2308 20.2714 13.9146 20.6292C13.549 21.043 13.0178 21.3034 12.4265 21.3034H11.094ZM18.803 20.6292H20.7138C23.5576 20.6292 26 18.4097 26 15.5056C26 12.6015 23.5576 10.382 20.7138 10.382H0.0643909L0.0391398 13.0787H20.7138C22.2388 13.0787 23.338 14.2397 23.338 15.5056C23.338 16.7716 22.2388 17.9326 20.7138 17.9326H18.803V20.6292Z" fill="#484848" fill-opacity="0.91"/>
</svg>
